<?xml version="1.0" encoding="utf-8"?>
<!-- Generator: Adobe Illustrator 23.0.6, SVG Export Plug-In . SVG Version: 6.00 Build 0)  -->
<svg version="1.1" id="Layer_1" xmlns="http://www.w3.org/2000/svg" xmlns:xlink="http://www.w3.org/1999/xlink" x="0px" y="0px"
	 viewBox="0 0 9.8 8.3" style="enable-background:new 0 0 9.8 8.3;" xml:space="preserve">
<style type="text/css">
	.st0{opacity:0.8;fill:#FFFFFF;}
</style>
<path class="st0" d="M9.3,5.2H0.4C0.2,5.2,0,5,0,4.8V3.6c0-0.2,0.2-0.4,0.4-0.4h8.9c0.2,0,0.4,0.2,0.4,0.4v1.2
	C9.8,5,9.6,5.2,9.3,5.2z"/>
<path class="st0" d="M9.3,8.3H0.4C0.2,8.3,0,8.2,0,7.9V6.7c0-0.2,0.2-0.4,0.4-0.4h8.9c0.2,0,0.4,0.2,0.4,0.4v1.2
	C9.8,8.2,9.6,8.3,9.3,8.3z"/>
<path class="st0" d="M9.3,2H0.4C0.2,2,0,1.9,0,1.6V0.4C0,0.2,0.2,0,0.4,0h8.9c0.2,0,0.4,0.2,0.4,0.4v1.2C9.8,1.9,9.6,2,9.3,2z"/>
</svg>
