<svg xmlns="http://www.w3.org/2000/svg" xmlns:xlink="http://www.w3.org/1999/xlink" viewBox="0 0 72 72"><defs><style>.cls-1{fill:url(#linear-gradient);}.cls-2{fill:url(#linear-gradient-2);}</style><linearGradient id="linear-gradient" x1="15.92" y1="1.5" x2="66.9" y2="50.75" gradientUnits="userSpaceOnUse"><stop offset="0" stop-color="#fff"/><stop offset="1" stop-color="#211638"/></linearGradient><linearGradient id="linear-gradient-2" x1="17.09" y1="72.38" x2="67.21" y2="27.44" xlink:href="#linear-gradient"/></defs><title>AccessDeniedUser</title><g id="DeniedUser"><path class="cls-1" d="M37,8.67c-6.86,0-12.45,5.84-12.45,13.13S30.16,35.15,37,35.15s12.41-6.1,12.41-13.42S43.83,8.67,37,8.67Zm0,22.54c-4.29,0-8-4.17-8-9.42s3.61-9.18,8-9.18,8,3.85,8,9.1S41.27,31.21,37,31.21Z"/><path class="cls-2" d="M36.94,38.26C21.46,38.26,12,49.12,12,56.56c0,3.24,2.42,4.72,7.47,4.72H54.4c5.06,0,7.47-1.48,7.47-4.72C61.87,49.12,52.46,38.26,36.94,38.26ZM57.32,56.74H16.59a.63.63,0,0,1-.65-.61c.08-4.52,7.49-13.54,21-13.54s21,9.07,21,13.58A.6.6,0,0,1,57.32,56.74Z"/></g></svg>