<svg id="Layer_1" data-name="Layer 1" xmlns="http://www.w3.org/2000/svg" viewBox="0 0 30.82 30.28"><defs><style>.cls-1{fill:#0099b2;}.cls-2{fill:#fff;}</style></defs><title>AquaKO</title><rect class="cls-1" width="30.82" height="30.28"/><path class="cls-2" d="M14.3,18.69l.64-.65,4.71-4.7,1.49,1.48,2.44-2.45h0l1.35,1.35,2.61-2.6L24.7,8.29,22.18,5.76,19.65,8.29h0L17.93,10l-8.3,8.3L4,24l2.53,2.52,5.21-5.21a7.56,7.56,0,0,1-.85,9h4.31A11.26,11.26,0,0,0,14.3,18.69Z"/><path class="cls-2" d="M6.7,17.76l.68-3.5A11.19,11.19,0,0,0,0,15.36v4.37A7.61,7.61,0,0,1,6.7,17.76Z"/></svg>