<svg xmlns="http://www.w3.org/2000/svg" viewBox="0 0 72 72"><defs><style>.cls-1{fill:#fff;}</style></defs><title>Config</title><g id="MostActiveUser"><g id="Regular-S"><path class="cls-1" d="M36.55,54.63c.44,0,.83-.05,1.31-.07l1.06,2a1.07,1.07,0,0,0,1.16.58,1.14,1.14,0,0,0,.9-1L41.3,54a23.52,23.52,0,0,0,2.5-.9l1.66,1.52a1.11,1.11,0,0,0,1.31.14,1.14,1.14,0,0,0,.51-1.2l-.48-2.24a15.69,15.69,0,0,0,2-1.66l2.1.85a1.05,1.05,0,0,0,1.29-.32,1,1,0,0,0,.07-1.27l-1.2-1.94a15.23,15.23,0,0,0,1.29-2.31l2.29.12A1.1,1.1,0,0,0,55.75,44a1.11,1.11,0,0,0-.37-1.25l-1.8-1.41a13.74,13.74,0,0,0,.49-2.6l2.15-.7A1.08,1.08,0,0,0,57,37,1.09,1.09,0,0,0,56.22,36l-2.15-.67a14.21,14.21,0,0,0-.49-2.63l1.8-1.41A1.07,1.07,0,0,0,55.75,30a1.08,1.08,0,0,0-1.08-.72l-2.29.1a14.32,14.32,0,0,0-1.29-2.31l1.2-1.94a1,1,0,0,0-.07-1.25,1.09,1.09,0,0,0-1.29-.34l-2.1.83a21.42,21.42,0,0,0-2-1.67l.48-2.21a1.12,1.12,0,0,0-.51-1.2,1,1,0,0,0-1.31.16L43.8,21a26,26,0,0,0-2.5-.9L41,17.81a1.1,1.1,0,0,0-2.06-.39l-1.06,2c-.48,0-.87,0-1.31,0s-.88,0-1.34,0l-1.09-2A1.08,1.08,0,0,0,33,16.86a1.11,1.11,0,0,0-.88.95l-.32,2.24a20.44,20.44,0,0,0-2.49.9l-1.69-1.48a1,1,0,0,0-1.32-.16,1.11,1.11,0,0,0-.48,1.2l.46,2.21a20.23,20.23,0,0,0-2,1.67l-2.08-.83a1.08,1.08,0,0,0-1.29.34,1,1,0,0,0-.09,1.23l1.2,2a17.08,17.08,0,0,0-1.3,2.31l-2.28-.1a1.07,1.07,0,0,0-.69,1.94l1.77,1.41A17.19,17.19,0,0,0,19,35.28L16.83,36A1.1,1.1,0,0,0,16.07,37a1.08,1.08,0,0,0,.76,1l2.17.7a16.6,16.6,0,0,0,.46,2.6l-1.77,1.41a1.14,1.14,0,0,0-.4,1.25,1.11,1.11,0,0,0,1.09.74l2.28-.12A18.39,18.39,0,0,0,22,46.94l-1.2,1.94a1.06,1.06,0,0,0,.09,1.27,1,1,0,0,0,1.29.32l2.08-.85a15,15,0,0,0,2,1.66l-.46,2.24a1.09,1.09,0,0,0,1.8,1.06l1.69-1.52a18.89,18.89,0,0,0,2.49.9l.32,2.26a1.12,1.12,0,0,0,.88,1,1,1,0,0,0,1.15-.58l1.09-2C35.67,54.58,36.06,54.63,36.55,54.63Zm4.66-18.91c-1-2.35-2.63-3.58-4.73-3.58a5.4,5.4,0,0,0-1.23.17l-4.89-8.38a14.38,14.38,0,0,1,6.19-1.39A14.24,14.24,0,0,1,50.79,35.72ZM22.23,37A14.53,14.53,0,0,1,28,25.31l5,8.43a4.91,4.91,0,0,0-1.41,3.34A4.81,4.81,0,0,0,33,40.34L27.89,48.6A14.45,14.45,0,0,1,22.23,37Zm12.24,0a2.08,2.08,0,0,1,4.15,0,2.08,2.08,0,0,1-4.15,0Zm2.08,14.43A14.48,14.48,0,0,1,30.18,50l5-8.21a5.51,5.51,0,0,0,1.25.16c2.1,0,3.78-1.23,4.73-3.63h9.56A14.2,14.2,0,0,1,36.55,51.49Z"/></g></g></svg>