<svg id="DeniedDoc" xmlns="http://www.w3.org/2000/svg" viewBox="0 0 72 72"><defs><style>.cls-1{fill:#fff;}</style></defs><title>DeniedDoc</title><path class="cls-1" d="M22.57,63.87H51.48q8.79,0,8.79-8.62V31.69c0-3.72-.42-5.34-2.83-7.74L43,9.61c-2.26-2.26-4.15-2.74-7.49-2.74H22.57c-5.85,0-8.75,2.88-8.75,8.62V55.25C13.82,61,16.72,63.87,22.57,63.87Zm-.36-4.22c-2.73,0-4.15-1.45-4.15-4V13.74c0-2.6,1.35-4.08,4-4.08H33.7V25.84a5.62,5.62,0,0,0,5.71,5.55H56V55.64c0,2.56-1.42,4-4.15,4ZM38,26.41V10.66L55.82,28H39.63A1.61,1.61,0,0,1,38,26.41Z"/></svg>