<svg id="DeniedDoc" xmlns="http://www.w3.org/2000/svg" xmlns:xlink="http://www.w3.org/1999/xlink" viewBox="0 0 72 72"><defs><style>.cls-1{fill:url(#linear-gradient);}</style><linearGradient id="linear-gradient" x1="44.23" y1="74.98" x2="28.64" y2="-5.72" gradientUnits="userSpaceOnUse"><stop offset="0" stop-color="#fff"/><stop offset="1" stop-color="#211638"/></linearGradient></defs><title>DeniedDoc</title><path class="cls-1" d="M23.44,63h28.9q8.79,0,8.79-8.62V30.81c0-3.71-.42-5.34-2.82-7.74L43.83,8.74C41.57,6.47,39.69,6,36.34,6H23.44c-5.86,0-8.75,2.87-8.75,8.62V54.38C14.69,60.16,17.58,63,23.44,63Zm.47-4.22c-2.66,0-4.05-1.42-4.05-3.9V14.18c0-2.52,1.32-4,3.88-4H35.12V25.94a5.48,5.48,0,0,0,5.56,5.39H56.91V54.88c0,2.48-1.39,3.9-4,3.9ZM40,25.74V12L54.79,27.11H41.39A1.37,1.37,0,0,1,40,25.74Z"/></svg>