<svg xmlns="http://www.w3.org/2000/svg" xmlns:xlink="http://www.w3.org/1999/xlink" viewBox="0 0 72 72"><defs><style>.cls-1{fill:url(#linear-gradient);}.cls-2{fill:#fff;}.cls-3{fill:url(#linear-gradient-2);}</style><linearGradient id="linear-gradient" x1="15.04" y1="1.38" x2="66.04" y2="50.65" gradientUnits="userSpaceOnUse"><stop offset="0" stop-color="#fff"/><stop offset="1" stop-color="#211638"/></linearGradient><linearGradient id="linear-gradient-2" x1="16.22" y1="72.27" x2="66.35" y2="27.33" xlink:href="#linear-gradient"/></defs><title>DeniedUser</title><g id="DeniedUser"><path class="cls-1" d="M23.65,21.69c0-7.29,5.6-13.13,12.45-13.13s12.41,5.73,12.41,13.06S42.89,35,36.1,35,23.65,29,23.65,21.69Z"/><path class="cls-2" d="M43.28,21.62c0-4.73-3.21-8.19-7.18-8.19S28.85,17,28.88,21.69s3.36,8.48,7.22,8.48S43.28,26.35,43.28,21.62Z"/><path class="cls-3" d="M18.64,61.17H53.53c5,0,7.47-1.48,7.47-4.73C61,49,51.58,38.15,36.07,38.15S11.17,49,11.17,56.44C11.17,59.69,13.58,61.17,18.64,61.17Z"/><path class="cls-2" d="M55.19,57.19a.56.56,0,0,0,.58-.53c0-4.24-7-12.75-19.7-12.75S16.44,52.37,16.36,56.62a.6.6,0,0,0,.62.57Z"/></g></svg>