<svg id="DeniedDoc" xmlns="http://www.w3.org/2000/svg" viewBox="0 0 72 72"><defs><style>.cls-1{fill:#fff;}</style></defs><title>DocAccess</title><path class="cls-1" d="M22.76,65.22h28.9q8.79,0,8.79-8.63V33c0-3.72-.42-5.34-2.82-7.74L43.16,11C40.89,8.69,39,8.22,35.66,8.22H22.76C16.9,8.22,14,11.09,14,16.84V56.59C14,62.38,16.9,65.22,22.76,65.22ZM22.39,61c-2.73,0-4.15-1.45-4.15-4V15.08c0-2.6,1.35-4.08,4-4.08H33.88V27.18a5.64,5.64,0,0,0,5.71,5.56H56.23V57c0,2.56-1.42,4-4.15,4ZM38.15,27.75V12L56,29.33H39.81A1.63,1.63,0,0,1,38.15,27.75Z"/></svg>