<svg xmlns="http://www.w3.org/2000/svg" xmlns:xlink="http://www.w3.org/1999/xlink" viewBox="0 0 72 72"><defs><style>.cls-1{fill:url(#linear-gradient);}</style><linearGradient id="linear-gradient" x1="53.63" y1="67.44" x2="17.52" y2="6.63" gradientUnits="userSpaceOnUse"><stop offset="0" stop-color="#fff"/><stop offset="1" stop-color="#211638"/></linearGradient></defs><title>FailedAuth</title><g id="FailedAuth"><path id="Regular-S" class="cls-1" d="M48.38,8.17c-6.82,0-13.6,4.86-13.6,15.58v5.92H15.26c-3.76,0-5.6,2-5.6,6.18V54.08c0,4.25,1.84,6.21,5.6,6.21H38.14c3.36,0,5-1.92,5-6.07V36.39c0-3.78-1.38-5.69-4.19-6v-7.2c0-7.21,4.46-10.82,9.41-10.82S57.81,16,57.81,23.21v5.25c0,2,.93,2.8,2.13,2.8S62,30.53,62,28.55v-4.8C62,13,55.22,8.17,48.38,8.17ZM37.63,34.05c.91,0,1.34.44,1.34,1.54V54.38c0,1.09-.43,1.54-1.34,1.54H15.19c-.89,0-1.34-.45-1.34-1.54V35.59c0-1.1.45-1.54,1.34-1.54Z"/></g></svg>