<svg xmlns="http://www.w3.org/2000/svg" viewBox="0 0 72 72"><defs><style>.cls-1{fill:#fff;}</style></defs><title>GeoFence</title><g id="GeoFence"><path id="Regular-S" class="cls-1" d="M35.86,62A27.4,27.4,0,0,0,63,34.75,27.4,27.4,0,0,0,35.82,7.58,27.41,27.41,0,0,0,8.61,34.75,27.48,27.48,0,0,0,35.86,62Zm1.19-48.61c2.22,1,4.22,3.67,5.75,7.37a40.33,40.33,0,0,1-5.75.59Zm-9.67,7.37c1.49-3.7,3.5-6.4,5.72-7.37v8A39.74,39.74,0,0,1,27.38,20.73Zm16.2-6.5a21.56,21.56,0,0,1,6.82,4.12,22.76,22.76,0,0,1-3.64,1.55A23.8,23.8,0,0,0,43.58,14.23ZM21.22,18.35A21.9,21.9,0,0,1,28,14.23a23.47,23.47,0,0,0-3.19,5.67A24.3,24.3,0,0,1,21.22,18.35ZM49.36,32.13a41.84,41.84,0,0,0-1.52-9.9,23.78,23.78,0,0,0,5-2.22,21.94,21.94,0,0,1,4.81,12.12ZM14,32.13A21.91,21.91,0,0,1,18.76,20a24.25,24.25,0,0,0,5,2.22,41.32,41.32,0,0,0-1.53,9.9Zm23.07,0v-8.2a47.1,47.1,0,0,0,6.85-.8,39.7,39.7,0,0,1,1.42,9Zm-12.19,0a38.09,38.09,0,0,1,1.42-9,46.19,46.19,0,0,0,6.82.8v8.2ZM14,36.08h8.27a40.73,40.73,0,0,0,1.53,10,23.34,23.34,0,0,0-4.92,2.15A21.62,21.62,0,0,1,14,36.08Zm10.84,0H33.1v8.35a46.22,46.22,0,0,0-6.82.79A39.27,39.27,0,0,1,24.82,36.08Zm12.23,8.35V36.08h8.27a41,41,0,0,1-1.42,9.14A47.12,47.12,0,0,0,37.05,44.43Zm10.79,1.69a42.17,42.17,0,0,0,1.55-10h8.28A21.86,21.86,0,0,1,52.82,48.3,24.64,24.64,0,0,0,47.84,46.12ZM27.38,48.91a39.79,39.79,0,0,1,5.72-.58v8C30.88,55.32,28.87,52.62,27.38,48.91Zm9.67-.58a40.37,40.37,0,0,1,5.75.58c-1.53,3.71-3.53,6.41-5.75,7.38Zm9.71,1.41a21.06,21.06,0,0,1,3.6,1.53,22,22,0,0,1-6.64,4A23,23,0,0,0,46.76,49.74ZM21.32,51.23a24.31,24.31,0,0,1,3.53-1.49,24.75,24.75,0,0,0,3,5.47A21.22,21.22,0,0,1,21.32,51.23Z"/></g></svg>