<svg id="DeniedDoc" xmlns="http://www.w3.org/2000/svg" xmlns:xlink="http://www.w3.org/1999/xlink" viewBox="0 0 72 72"><defs><style>.cls-1{fill:url(#linear-gradient);}</style><linearGradient id="linear-gradient" x1="16.42" y1="20.21" x2="51.61" y2="48.27" gradientUnits="userSpaceOnUse"><stop offset="0" stop-color="#fff"/><stop offset="1" stop-color="#211638"/></linearGradient></defs><title>Ipfencing</title><path class="cls-1" d="M42.51,57a4.59,4.59,0,0,0,2.2-.54l11.18-6.28a3.7,3.7,0,0,0,2-3.44V17.14a2.4,2.4,0,0,0-2.66-2.66,4,4,0,0,0-1.92.6L42.05,21.39,30.41,14.24a4.13,4.13,0,0,0-2.14-.57,4.42,4.42,0,0,0-2.22.57L14.89,20.52a3.65,3.65,0,0,0-2,3.44V53.53a2.39,2.39,0,0,0,2.62,2.66,4,4,0,0,0,1.93-.6l10.72-5.74L40,56.35A5.36,5.36,0,0,0,42.51,57ZM18.06,51.12c-.19,0-.27-.11-.27-.29V24.93a1.3,1.3,0,0,1,.7-1.19L26.83,19c.27-.16.52-.3.76-.46V46L18.36,51A.74.74,0,0,1,18.06,51.12Zm23.21.6c-.33-.16-.65-.33-1-.52l-8.77-4.82V19c.21.14.46.27.67.41L41.27,25Zm3.9.49V24.72l9.26-5.07a.81.81,0,0,1,.3-.1c.16,0,.24.1.24.29V45.76A1.27,1.27,0,0,1,54.29,47L46.2,51.61C45.87,51.83,45.52,52,45.17,52.21Z"/></svg>