<svg id="Layer_1" data-name="Layer 1" xmlns="http://www.w3.org/2000/svg" viewBox="0 0 15 15"><defs><style>.cls-1{fill:#2d68c4;}.cls-2{fill:#fff;}</style></defs><title>KnockOut</title><rect class="cls-1" x="0.65" y="0.32" width="13.93" height="13.68"/><path class="cls-2" d="M7.11,8.76l.29-.29L9.53,6.35,10.2,7l1.1-1.11h0l.61.61,1.18-1.17L11.81,4.06,10.67,2.92,9.53,4.06h0l-.78.78L5,8.59,2.45,11.14l1.14,1.14L6,9.92A3.43,3.43,0,0,1,5.56,14h2A5.1,5.1,0,0,0,7.11,8.76Z"/><path class="cls-2" d="M3.67,8.35,4,6.76a5.1,5.1,0,0,0-3.33.5v2A3.4,3.4,0,0,1,3.67,8.35Z"/></svg>