<svg id="DeniedDoc" xmlns="http://www.w3.org/2000/svg" xmlns:xlink="http://www.w3.org/1999/xlink" viewBox="0 0 72 72"><defs><style>.cls-1{fill:url(#linear-gradient);}.cls-2{fill:url(#linear-gradient-2);}.cls-3{fill:url(#linear-gradient-3);}</style><linearGradient id="linear-gradient" x1="54.79" y1="38.39" x2="47.77" y2="2.09" gradientUnits="userSpaceOnUse"><stop offset="0" stop-color="#fff"/><stop offset="1" stop-color="#211638"/></linearGradient><linearGradient id="linear-gradient-2" x1="44.01" y1="55.72" x2="33.96" y2="3.71" xlink:href="#linear-gradient"/><linearGradient id="linear-gradient-3" x1="35.27" y1="73.19" x2="23.52" y2="12.39" xlink:href="#linear-gradient"/></defs><title>MostActiveDocs</title><path class="cls-1" d="M61.11,15l-6.5-6.45a4,4,0,0,0-3.38-1.23h-5.8q-3.94,0-3.94,3.88V29.12c0,2.6,1.31,3.88,3.94,3.88h13q4,0,4-3.88V18.52A4,4,0,0,0,61.11,15Zm-8.22-5,6.64,6.8h-6a.62.62,0,0,1-.62-.62Zm7.6,19.29a1.62,1.62,0,0,1-1.83,1.75h-13a1.61,1.61,0,0,1-1.82-1.75V11a1.59,1.59,0,0,1,1.75-1.78h5.11v7.07a2.48,2.48,0,0,0,2.51,2.43h7.3Z"/><path class="cls-2" d="M53.08,22.26,43.76,13c-1.47-1.46-2.68-1.76-4.84-1.76H30.61c-3.78,0-5.64,1.85-5.64,5.55V42.44C25,46.17,26.83,48,30.61,48H49.24c3.78,0,5.66-1.85,5.66-5.56V27.25C54.9,24.86,54.63,23.81,53.08,22.26ZM41.3,15.12l9.52,9.75H42.18A.88.88,0,0,1,41.3,24ZM52.18,42.77a2.3,2.3,0,0,1-2.61,2.51H30.91a2.31,2.31,0,0,1-2.61-2.51V16.53A2.27,2.27,0,0,1,30.8,14h7.34V24.11a3.53,3.53,0,0,0,3.58,3.48H52.18Z"/><path class="cls-3" d="M19.6,64.16H41.38q6.61,0,6.62-6.49V39.91c0-2.8-.32-4-2.13-5.83L35,23.28c-1.71-1.71-3.13-2.06-5.65-2.06H19.6c-4.41,0-6.59,2.16-6.59,6.49v30C13,62,15.19,64.16,19.6,64.16ZM20,61c-2,0-3.05-1.06-3.05-2.93V27.38a2.65,2.65,0,0,1,2.92-3H28.4V36.24a4.13,4.13,0,0,0,4.19,4.06H44.82V58.05c0,1.87-1,2.93-3,2.93ZM32.09,36.09V25.73L43.22,37.12H33.13A1,1,0,0,1,32.09,36.09Z"/></svg>