<?xml version="1.0" encoding="utf-8"?>
<!-- Generator: Adobe Illustrator 24.0.0, SVG Export Plug-In . SVG Version: 6.00 Build 0)  -->
<svg version="1.1" id="Layer_1" xmlns="http://www.w3.org/2000/svg" xmlns:xlink="http://www.w3.org/1999/xlink" x="0px" y="0px"
	 viewBox="0 0 122.4 32.6" style="enable-background:new 0 0 122.4 32.6;" xml:space="preserve">
<style type="text/css">
	.st0{fill:#FFFFFF;}
</style>
<title>NavIcon</title>
<g>
	<path class="st0" d="M6.4,4.5h12.8v4.4h-7.4V14h6.9v4.4h-6.9v9.7H6.4V4.5z"/>
	<path class="st0" d="M33.8,23.6c0,1.3,0.1,3.6,0.1,4.5h-4.8c-0.1-0.4-0.2-1.1-0.2-1.6c-0.9,1.2-2.2,1.9-4.1,1.9
		c-3.3,0-4.9-2.5-4.9-5.7c0-4,2.7-6,7.2-6c0.5,0,1.1,0,1.5,0V15c0-1-0.1-1.8-1.4-1.8c-1.2,0-1.4,0.8-1.5,2.1h-5
		c0.1-3.2,1.6-5.8,6.7-5.8c4.3,0,6.5,1.7,6.5,5.5V23.6z M28.6,20.1c-0.3,0-0.6,0-1,0c-1.8,0-2.4,1-2.4,2.2c0,1.1,0.4,2,1.6,2
		c1.6,0,1.8-1.2,1.8-3.3V20.1z"/>
	<path class="st0" d="M37,3.4h5.3v8c0.6-1.1,1.8-1.9,3.9-1.9c3.6,0,5.2,2.9,5.2,8.9c0,6.6-1.5,10-5.7,10c-2.3,0-3-1.1-3.5-1.9
		c0,0.4,0,1.1-0.1,1.6h-5.1c0-1.5,0-3.4,0-4.9V3.4z M46,18.6c0-3.5-0.3-4.9-1.8-4.9c-1.5,0-1.9,1-1.9,5.3c0,4.3,0.4,5.3,1.8,5.3
		C45.6,24.2,46,22.8,46,18.6z"/>
	<path class="st0" d="M54.6,28.1V3.4h0.6v24.7H54.6z"/>
	<path class="st0" d="M59.5,18.9c-0.1,5.8,1.1,8.9,4.2,8.9c3.5,0,3.8-3.7,3.9-4.3h0.6c0,0.5-0.5,4.9-4.5,4.9c-4.5,0-4.8-5.5-4.8-9.2
		c0-5.6,1.7-8.8,4.8-8.8c3.5,0,4.6,2.8,4.6,7.7c0,0.2,0,0.6,0,0.8H59.5z M67.7,18.3c0-4.2-0.6-7.4-4-7.4c-3.4,0-4.1,4.6-4.2,7.4
		H67.7z"/>
	<path class="st0" d="M79.7,25.1c0,1.9,0,2.3,0.1,3h-0.6c-0.1-0.7-0.1-1.7-0.1-2.8c-0.6,1.8-1.6,3.1-4.1,3.1c-3.2,0-4-2.8-4-4.7
		c0-2.8,1.4-5.2,5.7-5.2c1.2,0,2,0,2.4,0v-3.5c0-1.4-0.1-4-3.3-4c-2.7,0-3.3,1.8-3.4,3.9h-0.6c0.1-2.1,0.7-4.5,4.1-4.5
		c3.5,0,3.9,2.7,3.9,4.5V25.1z M79.1,19c-0.6,0-1.4,0-2.5,0c-3.7,0-5,1.9-5,4.6c0,2.4,1.2,4.1,3.5,4.1c3,0,4-2.1,4-6.6V19z"/>
	<path class="st0" d="M92.9,23.8c0,1.7,0,3.1,0,4.3h-0.6c0-0.7-0.1-3-0.1-3.6c-0.5,2.2-1.6,3.8-4.2,3.8c-2.1,0-3.9-0.9-3.9-5.1V10.6
		h0.6v12.6c0,2.4,0.6,4.5,3.3,4.5c2.3,0,4.2-1.6,4.2-6.9V10.6h0.6V23.8z"/>
	<path class="st0" d="M96.5,10.6c2.4,4.8,3.4,6.8,3.9,7.8h0c0.6-1.2,1.8-3.6,4-7.8h0.7l-4.4,8.4l4.5,9.1h-0.7
		c-2.3-4.7-3.6-7.3-4.1-8.4h0c-0.5,1.1-2,4-4.1,8.4h-0.7l4.5-9l-4.3-8.5H96.5z"/>
</g>
</svg>
