<svg id="Layer_1" data-name="Layer 1" xmlns="http://www.w3.org/2000/svg" viewBox="0 0 122.38 32.57"><defs><style>.cls-1{fill:#fff;}</style></defs><title>NavIcon</title><path class="cls-1" d="M38.29,28.11a8.14,8.14,0,0,1-2.8-.46,6.72,6.72,0,0,1-2.24-1.34,6.28,6.28,0,0,1-1.48-2.12,7.37,7.37,0,0,1,0-5.54,6.32,6.32,0,0,1,1.48-2.13,6.48,6.48,0,0,1,2.19-1.36,7.74,7.74,0,0,1,2.7-.47,8.39,8.39,0,0,1,2.84.48,6,6,0,0,1,2.18,1.33l-2.5,3a3.08,3.08,0,0,0-.93-.75,3,3,0,0,0-1.34-.28,2.58,2.58,0,0,0-1,.21,2.75,2.75,0,0,0-.88.6,3,3,0,0,0-.61.92,3.11,3.11,0,0,0-.23,1.21,3.3,3.3,0,0,0,.69,2.17,2.71,2.71,0,0,0,2.22.83,3.6,3.6,0,0,0,.56,0,1.41,1.41,0,0,0,.45-.14v-1h-2V19.91h5.85v7a6.72,6.72,0,0,1-1,.5,9,9,0,0,1-1.24.38,13.84,13.84,0,0,1-1.37.27A11.72,11.72,0,0,1,38.29,28.11Z"/><path class="cls-1" d="M45.23,15.59a2.08,2.08,0,0,1,.17-.82,2.18,2.18,0,0,1,.47-.68,2.43,2.43,0,0,1,.7-.46,2.14,2.14,0,0,1,.84-.17,2,2,0,0,1,.81.17,2.63,2.63,0,0,1,.68.46,2.15,2.15,0,0,1,.46.68,1.92,1.92,0,0,1,.18.82,1.9,1.9,0,0,1-.18.83,2.1,2.1,0,0,1-.46.67,2.34,2.34,0,0,1-.68.44,2,2,0,0,1-.81.16,2.13,2.13,0,0,1-.84-.16,2.19,2.19,0,0,1-.7-.44,2.13,2.13,0,0,1-.47-.67A2.05,2.05,0,0,1,45.23,15.59Zm.07,2.73h4.16v9.47H45.3Z"/><path class="cls-1" d="M51,23a5.83,5.83,0,0,1,.28-1.8,5,5,0,0,1,.82-1.58,4.15,4.15,0,0,1,1.35-1.14,3.88,3.88,0,0,1,1.87-.43,4.07,4.07,0,0,1,1.49.29,2.69,2.69,0,0,1,1.19.92h.06v-1H62v8.5a5.88,5.88,0,0,1-.5,2.57A4.25,4.25,0,0,1,60.13,31a5.2,5.2,0,0,1-1.9.85,9.8,9.8,0,0,1-2.16.24,10.87,10.87,0,0,1-2.7-.35,7.59,7.59,0,0,1-2.36-1L52.83,28a4.54,4.54,0,0,0,1.44.76,4.46,4.46,0,0,0,1.44.25,3,3,0,0,0,.85-.12,2.23,2.23,0,0,0,.71-.34,1.64,1.64,0,0,0,.49-.56,1.58,1.58,0,0,0,.18-.76v-.42h0a2.81,2.81,0,0,1-1,.7,3.59,3.59,0,0,1-1.54.31,4.37,4.37,0,0,1-1.91-.39,3.77,3.77,0,0,1-1.35-1,4.51,4.51,0,0,1-.8-1.52A6.41,6.41,0,0,1,51,23Zm3.85,0a1.64,1.64,0,0,0,.4,1.14,1.42,1.42,0,0,0,1.15.46,1.52,1.52,0,0,0,1.18-.47A1.6,1.6,0,0,0,58,23a1.57,1.57,0,0,0-.44-1.1,1.55,1.55,0,0,0-1.18-.47,1.43,1.43,0,0,0-1.15.47A1.62,1.62,0,0,0,54.86,23Z"/><path class="cls-1" d="M69,21.78a.72.72,0,0,0-.3-.64,1.33,1.33,0,0,0-.78-.21,2.52,2.52,0,0,0-1.09.24,5,5,0,0,0-.91.57l-2.07-2a6.08,6.08,0,0,1,2-1.28A6.86,6.86,0,0,1,68.31,18a5.73,5.73,0,0,1,2.23.38,3.48,3.48,0,0,1,1.4,1,4.09,4.09,0,0,1,.72,1.55,8.65,8.65,0,0,1,.2,1.87v5H69.1V27h0a2,2,0,0,1-1,.78,4.1,4.1,0,0,1-1.3.23,4.18,4.18,0,0,1-1.14-.16,3.18,3.18,0,0,1-1.06-.52,2.68,2.68,0,0,1-.78-.94A2.92,2.92,0,0,1,63.45,25,2.45,2.45,0,0,1,64,23.39a3.48,3.48,0,0,1,1.31-1A6,6,0,0,1,67,21.94,15.75,15.75,0,0,1,69,21.81Zm0,2.09a4.56,4.56,0,0,0-1.47.19.74.74,0,0,0-.56.74.62.62,0,0,0,.09.34.8.8,0,0,0,.23.22,1.15,1.15,0,0,0,.32.14,1.88,1.88,0,0,0,.31,0,1.27,1.27,0,0,0,1-.38,1.34,1.34,0,0,0,.36-1v-.32Z"/><path class="cls-1" d="M86,25.72a6,6,0,0,1-.78.92,5.28,5.28,0,0,1-1.07.76,5.85,5.85,0,0,1-1.33.52,6.13,6.13,0,0,1-1.59.19,6.9,6.9,0,0,1-2.67-.5,6.34,6.34,0,0,1-2.1-1.4,6.23,6.23,0,0,1-1.38-2.11,7.1,7.1,0,0,1-.49-2.68,6.88,6.88,0,0,1,.5-2.68,6.33,6.33,0,0,1,3.5-3.51,6.75,6.75,0,0,1,2.64-.51,6.34,6.34,0,0,1,1.38.15,6.41,6.41,0,0,1,1.26.41,5.22,5.22,0,0,1,1.08.64,3.22,3.22,0,0,1,.81.84l-1.08.79a2.66,2.66,0,0,0-.53-.61,3.18,3.18,0,0,0-.78-.54,4.43,4.43,0,0,0-1-.38,4.19,4.19,0,0,0-1.14-.15,5.32,5.32,0,0,0-2.23.45,5.08,5.08,0,0,0-1.66,1.21,5.26,5.26,0,0,0-1.05,1.77,6.34,6.34,0,0,0,0,4.24,5.41,5.41,0,0,0,1.06,1.76,5,5,0,0,0,1.66,1.21,5.26,5.26,0,0,0,2.21.45,5,5,0,0,0,2.08-.45A3.94,3.94,0,0,0,85,25.07Z"/><path class="cls-1" d="M89.46,27.79H88.23V14.18h1.23Z"/><path class="cls-1" d="M101.1,23.58a4.63,4.63,0,0,1-.33,1.76,4.12,4.12,0,0,1-2.35,2.33,5,5,0,0,1-3.62,0,4.3,4.3,0,0,1-1.42-.92,4.36,4.36,0,0,1-.92-1.41,4.75,4.75,0,0,1,0-3.53,4.15,4.15,0,0,1,2.34-2.33,5.13,5.13,0,0,1,3.62,0,4.2,4.2,0,0,1,2.35,2.33A4.65,4.65,0,0,1,101.1,23.58Zm-1.29,0a3.91,3.91,0,0,0-.23-1.33,3.26,3.26,0,0,0-.64-1.08,3.05,3.05,0,0,0-1-.72,3.21,3.21,0,0,0-1.34-.27,3.11,3.11,0,0,0-1.32.27,3.16,3.16,0,0,0-1,.72,3.43,3.43,0,0,0-.64,1.08,3.91,3.91,0,0,0-.22,1.33,3.81,3.81,0,0,0,.22,1.32A3.33,3.33,0,0,0,94.28,26a2.88,2.88,0,0,0,1,.72A3.11,3.11,0,0,0,96.6,27a3.21,3.21,0,0,0,1.34-.26,2.79,2.79,0,0,0,1-.72,3.16,3.16,0,0,0,.64-1.08A3.81,3.81,0,0,0,99.81,23.58Z"/><path class="cls-1" d="M109.85,27.79c0-.23,0-.48,0-.76s0-.5,0-.68h0a2.81,2.81,0,0,1-1.17,1.2,3.48,3.48,0,0,1-1.71.46,3,3,0,0,1-2.4-1,3.79,3.79,0,0,1-.8-2.52V19.37h1.23V24a6.33,6.33,0,0,0,.1,1.2,2.59,2.59,0,0,0,.37.93,1.77,1.77,0,0,0,.7.6,2.63,2.63,0,0,0,2.06,0,2.31,2.31,0,0,0,.81-.6,2.92,2.92,0,0,0,.58-1,4.53,4.53,0,0,0,.22-1.46V19.37H111v6.57c0,.22,0,.52,0,.88s0,.68,0,1Z"/><path class="cls-1" d="M121.12,26.37a3.43,3.43,0,0,1-1.4,1.22,4.05,4.05,0,0,1-1.79.42,4.5,4.5,0,0,1-1.79-.35,4,4,0,0,1-1.36-.93,4.28,4.28,0,0,1-.89-1.41,5.07,5.07,0,0,1,0-3.49,4.14,4.14,0,0,1,.89-1.4,4,4,0,0,1,1.36-.94,4.5,4.5,0,0,1,1.79-.34,4.05,4.05,0,0,1,1.79.42,3.58,3.58,0,0,1,1.4,1.25h0V14.18h1.22V27.79h-1.22V26.37Zm-6.25-2.79a4.06,4.06,0,0,0,.22,1.32,3.12,3.12,0,0,0,.62,1.08,2.7,2.7,0,0,0,1,.72,3.25,3.25,0,0,0,1.35.26,3.11,3.11,0,0,0,1.3-.26,3.17,3.17,0,0,0,1-.71,3.21,3.21,0,0,0,.68-1.07,3.71,3.71,0,0,0,.24-1.34,3.67,3.67,0,0,0-.24-1.34,3.15,3.15,0,0,0-.68-1.08,3.05,3.05,0,0,0-1-.72,3.11,3.11,0,0,0-1.3-.26,3.25,3.25,0,0,0-1.35.27,3,3,0,0,0-1,.72,3.21,3.21,0,0,0-.62,1.08A4.17,4.17,0,0,0,114.87,23.58Z"/><path class="cls-1" d="M19,17.17l.85-.85,6.26-6.26,2,2,3.25-3.25h0l1.79,1.8,3.46-3.46L32.82,3.35,29.46,0,26.11,3.35h0L23.82,5.64l-11,11L5.3,24.16l3.36,3.35,6.92-6.92a10,10,0,0,1-1.12,12h5.71A15,15,0,0,0,19,17.17Z"/><path class="cls-1" d="M8.9,15.94l.9-4.65A14.81,14.81,0,0,0,0,12.76v5.8A10.08,10.08,0,0,1,8.9,15.94Z"/></svg>