<svg id="Layer_1" data-name="Layer 1" xmlns="http://www.w3.org/2000/svg" viewBox="0 0 144.08 39.97"><defs><style>.cls-1{fill:#1c1f2a;}.cls-2{font-size:18px;fill:#fff;font-family:AvenirNext-Heavy, Avenir Next;font-weight:800;}.cls-3{font-family:AvenirNext-Regular, Avenir Next;font-weight:400;}</style></defs><title>SolidBg</title><path class="cls-1" d="M0,20.16a14.75,14.75,0,0,1,9.8-1.47l-.9,4.66A10,10,0,0,0,0,26V40H14.45a10.06,10.06,0,0,0,1.12-12L8.64,34.92,5.29,31.56l7.49-7.49,11-11,2.28-2.28h0L29.45,7.4l3.35,3.36,3.77,3.76L33.11,18l-1.77-1.82h0l-3.25,3.25-2-2L19.86,23.7l-.85.85A15,15,0,0,1,20.19,40H40V0H0V20.16Z"/><rect class="cls-1" x="40" width="104.08" height="39.97"/><text class="cls-2" transform="translate(42.43 26.86)">Giga<tspan class="cls-3" x="43" y="0">Cloud</tspan></text></svg>