<svg xmlns="http://www.w3.org/2000/svg" xmlns:xlink="http://www.w3.org/1999/xlink" viewBox="0 0 72 72"><defs><style>.cls-1{fill:url(#linear-gradient);}</style><linearGradient id="linear-gradient" x1="34.99" y1="1.7" x2="35.74" y2="66.09" gradientUnits="userSpaceOnUse"><stop offset="0" stop-color="#fff"/><stop offset="1" stop-color="#211638"/></linearGradient></defs><title>Storage</title><g id="MostActiveUser"><path class="cls-1" d="M31.7,40.39a7.66,7.66,0,0,1-7.82-7.7c0-4.14,3.18-7.69,9.26-7.69l.46,0h0a2.19,2.19,0,0,0,2-1.44A15.71,15.71,0,0,1,36.49,22,15.27,15.27,0,0,0,33.16,20a15.57,15.57,0,0,0-6.51-1.39A16,16,0,0,0,10.74,33.14a9.52,9.52,0,0,0-6.89,9.29C3.85,47.74,7.67,52,14.32,52h27A12.3,12.3,0,0,0,54,40.39ZM41.61,48H14.26c-4.3,0-6.39-2.32-6.39-5.39,0-2.4,1.31-4.63,5-5.61a2.24,2.24,0,0,0,1.93-2.37c.52-6.91,5.47-11.79,11.49-12a11,11,0,0,0-6.13,10A11.51,11.51,0,0,0,31.94,44.15H48.73A8.29,8.29,0,0,1,41.61,48ZM31.7,40.39a7.66,7.66,0,0,1-7.82-7.7c0-4.14,3.18-7.69,9.26-7.69l.46,0a10.92,10.92,0,0,0-7-2.39h-.4a11,11,0,0,0-6.13,10A11.51,11.51,0,0,0,31.94,44.15H48.73A8.3,8.3,0,0,0,50,40.39ZM60.56,26.54A15,15,0,0,0,45.69,12.92a14.55,14.55,0,0,0-12.53,7,13.4,13.4,0,0,0-.67,1.18,13.51,13.51,0,0,0-6.24,1.46,11,11,0,0,0-6.13,10A11.51,11.51,0,0,0,31.94,44.15H57.22c6.2,0,9.78-4,9.78-8.92A8.9,8.9,0,0,0,60.56,26.54ZM57.27,40.39H31.7a7.66,7.66,0,0,1-7.82-7.7c0-4.14,3.18-7.69,9.26-7.69l.46,0h0a2.19,2.19,0,0,0,2-1.44A15.71,15.71,0,0,1,36.49,22a10.53,10.53,0,0,1,9.2-5.34c5.79,0,10.61,4.62,11.11,11.21a2.12,2.12,0,0,0,1.8,2.23c3.42.91,4.64,3,4.64,5.24C63.24,38.22,61.28,40.39,57.27,40.39Z"/></g></svg>