<svg xmlns="http://www.w3.org/2000/svg" viewBox="0 0 72 72"><defs><style>.cls-1{fill:#fff;}</style></defs><title>Subscriptions</title><g id="LicPurchased"><path id="Regular-S" class="cls-1" d="M15.84,56.89H54c5.31,0,8-2.55,8-7.71V23.71C62,18.55,59.34,16,54,16H15.84c-5.34,0-8,2.55-8,7.71V49.18C7.88,54.34,10.5,56.89,15.84,56.89Zm-4-33.32c0-2.43,1.31-3.68,3.61-3.68H54.38c2.3,0,3.61,1.25,3.61,3.68v2.17H11.88ZM15.49,53a3.25,3.25,0,0,1-3.61-3.62V31.58H58v17.8A3.25,3.25,0,0,1,54.38,53Zm2.63-7.79h5.57a2.25,2.25,0,0,0,2.23-2.48V38a2.26,2.26,0,0,0-2.23-2.48H18.12A2.26,2.26,0,0,0,15.89,38v4.78A2.25,2.25,0,0,0,18.12,45.21Z"/></g></svg>