<svg xmlns="http://www.w3.org/2000/svg" xmlns:xlink="http://www.w3.org/1999/xlink" viewBox="0 0 72 72"><defs><style>.cls-1{fill:url(#linear-gradient);}</style><linearGradient id="linear-gradient" x1="15.18" y1="9.44" x2="53.46" y2="68.25" gradientUnits="userSpaceOnUse"><stop offset="0" stop-color="#fff"/><stop offset="1" stop-color="#211638"/></linearGradient></defs><title>FailedAuth_1</title><g id="ActiveTemplate"><g id="Regular-S"><path class="cls-1" d="M36.71,7c-7.77,0-15,5.53-15,17.17v6.2C18.55,30.91,17,33.07,17,37V57.15C17,61.84,19.12,64,23.44,64H50c4.29,0,6.46-2.16,6.46-6.85V37c0-4-1.6-6.13-4.76-6.67v-6.2C51.71,12.53,44.48,7,36.71,7ZM26.85,23.42c0-7.52,4.43-11.56,9.86-11.56s9.9,4,9.9,11.56v6.81H26.85ZM49.8,35c1.06,0,1.56.5,1.56,1.7V57.51c0,1.2-.5,1.7-1.56,1.7H23.66c-1,0-1.56-.5-1.56-1.7V36.72c0-1.2.53-1.7,1.56-1.7Z"/></g></g></svg>