<svg xmlns="http://www.w3.org/2000/svg" viewBox="0 0 72 72"><defs><style>.cls-1{fill:#fff;}</style></defs><title>UserAccess</title><g id="DeniedUser"><path class="cls-1" d="M36.25,8.41c-6.86,0-12.45,5.84-12.45,13.13s5.63,13.35,12.45,13.35,12.41-6.1,12.41-13.42S43.1,8.41,36.25,8.41Zm0,22.54c-4.29,0-8-4.17-8-9.42s3.61-9.18,8-9.18,8,3.85,8,9.1S40.54,31,36.25,31Z"/><path class="cls-1" d="M36.21,38c-15.48,0-24.9,10.86-24.9,18.3,0,3.24,2.42,4.72,7.47,4.72H53.67c5.06,0,7.47-1.48,7.47-4.72C61.14,48.86,51.73,38,36.21,38ZM56.59,56.48H15.86a.63.63,0,0,1-.65-.61c.08-4.52,7.49-13.54,21-13.54s21,9.07,21,13.58A.6.6,0,0,1,56.59,56.48Z"/></g></svg>